<svg width="241" height="35" viewBox="0 0 241 35" fill="none" xmlns="http://www.w3.org/2000/svg">
<path d="M15.608 0.0159998C17.688 0.0159998 19.496 0.32 21.032 0.927999C22.568 1.504 24.072 2.4 25.544 3.616L22.04 7.696C20.12 6.128 18.104 5.344 15.992 5.344C13.624 5.344 11.736 6.32 10.328 8.272C8.952 10.192 8.264 13.216 8.264 17.344C8.264 21.376 8.952 24.368 10.328 26.32C11.736 28.24 13.64 29.2 16.04 29.2C17.288 29.2 18.424 28.976 19.448 28.528C20.472 28.048 21.544 27.376 22.664 26.512L25.928 30.592C24.744 31.808 23.272 32.816 21.512 33.616C19.784 34.384 17.864 34.768 15.752 34.768C12.776 34.768 10.168 34.096 7.928 32.752C5.688 31.408 3.944 29.44 2.696 26.848C1.448 24.224 0.824 21.056 0.824 17.344C0.824 13.728 1.464 10.624 2.744 8.032C4.024 5.408 5.784 3.424 8.024 2.08C10.264 0.704 12.792 0.0159998 15.608 0.0159998ZM47.4939 34L45.6219 26.56H35.2059L33.3339 34H25.9899L36.2139 0.783998H44.8059L54.9819 34H47.4939ZM36.5499 21.328H44.2779L40.3899 6.016L36.5499 21.328ZM65.1069 0.783998V34H58.0509V0.783998H65.1069ZM85.2643 0.0159998C88.3043 0.0159998 90.9283 0.704 93.1363 2.08C95.3443 3.424 97.0403 5.392 98.2243 7.984C99.4083 10.576 100 13.712 100 17.392C100 21.008 99.4083 24.128 98.2243 26.752C97.0403 29.344 95.3443 31.328 93.1363 32.704C90.9283 34.08 88.3043 34.768 85.2643 34.768C82.2243 34.768 79.5843 34.096 77.3443 32.752C75.1363 31.376 73.4403 29.392 72.2563 26.8C71.0723 24.176 70.4803 21.04 70.4803 17.392C70.4803 13.808 71.0723 10.72 72.2563 8.128C73.4723 5.504 75.1843 3.504 77.3923 2.128C79.6323 0.719999 82.2563 0.0159998 85.2643 0.0159998ZM85.2643 5.296C82.8323 5.296 80.9923 6.256 79.7443 8.176C78.5283 10.096 77.9203 13.168 77.9203 17.392C77.9203 21.616 78.5443 24.688 79.7923 26.608C81.0403 28.528 82.8643 29.488 85.2643 29.488C87.6963 29.488 89.5203 28.544 90.7363 26.656C91.9523 24.736 92.5603 21.648 92.5603 17.392C92.5603 13.136 91.9523 10.064 90.7363 8.176C89.5203 6.256 87.6963 5.296 85.2643 5.296ZM127.195 0.0159998C129.595 0.0159998 131.675 0.367999 133.435 1.072C135.227 1.744 136.875 2.784 138.379 4.192L135.019 8.08C133.835 7.12 132.651 6.416 131.467 5.968C130.283 5.52 129.019 5.296 127.674 5.296C126.203 5.296 125.019 5.616 124.123 6.256C123.259 6.864 122.827 7.744 122.827 8.896C122.827 9.696 123.003 10.352 123.355 10.864C123.739 11.376 124.395 11.856 125.323 12.304C126.251 12.752 127.643 13.264 129.499 13.84C132.795 14.896 135.259 16.208 136.891 17.776C138.523 19.312 139.339 21.52 139.339 24.4C139.339 26.448 138.826 28.256 137.802 29.824C136.779 31.36 135.291 32.576 133.339 33.472C131.387 34.336 129.099 34.768 126.475 34.768C123.851 34.768 121.515 34.352 119.467 33.52C117.419 32.688 115.659 31.552 114.187 30.112L117.787 26.128C119.067 27.216 120.395 28.048 121.771 28.624C123.147 29.168 124.651 29.44 126.283 29.44C128.011 29.44 129.387 29.04 130.411 28.24C131.467 27.44 131.995 26.32 131.995 24.88C131.995 23.984 131.803 23.248 131.419 22.672C131.067 22.064 130.443 21.52 129.547 21.04C128.651 20.56 127.355 20.064 125.659 19.552C122.043 18.432 119.451 17.088 117.883 15.52C116.347 13.952 115.579 11.904 115.579 9.376C115.579 7.52 116.075 5.888 117.067 4.48C118.059 3.04 119.435 1.936 121.195 1.168C122.955 0.4 124.955 0.0159998 127.195 0.0159998ZM161.541 34L159.669 26.56H149.253L147.381 34H140.037L150.261 0.783998H158.853L169.029 34H161.541ZM150.597 21.328H158.325L154.437 6.016L150.597 21.328ZM191.739 0.783998L190.971 6.304H182.571V34H175.515V6.304H166.683V0.783998H191.739ZM215.172 0.783998L214.404 5.92H202.404V14.56H212.868V19.648H202.404V28.816H215.268V34H195.348V0.783998H215.172ZM227.763 0.783998V28.336H240.915L240.147 34H220.707V0.783998H227.763Z" fill="#141414"/>
</svg>
